<?xml version="1.0" encoding="UTF-8" standalone="no"?>
<!-- Created with Inkscape (http://www.inkscape.org/) -->

<svg
   width="1080"
   height="1080"
   viewBox="0 0 1080 1080"
   version="1.1"
   id="svg1"
   inkscape:version="1.4.2 (ebf0e940d0, 2025-05-08)"
   sodipodi:docname="logo_debianday_joaopessoa_noyear_dark_20250806.svg"
   inkscape:export-filename="logo_debianday_joaopessoa_noyear_dark_20250806.png"
   inkscape:export-xdpi="96"
   inkscape:export-ydpi="96"
   xmlns:inkscape="http://www.inkscape.org/namespaces/inkscape"
   xmlns:sodipodi="http://sodipodi.sourceforge.net/DTD/sodipodi-0.dtd"
   xmlns="http://www.w3.org/2000/svg"
   xmlns:svg="http://www.w3.org/2000/svg">
  <sodipodi:namedview
     id="namedview1"
     pagecolor="#ffffff"
     bordercolor="#000000"
     borderopacity="0.25"
     inkscape:showpageshadow="2"
     inkscape:pageopacity="0.0"
     inkscape:pagecheckerboard="0"
     inkscape:deskcolor="#d1d1d1"
     inkscape:document-units="px"
     inkscape:zoom="0.53229427"
     inkscape:cx="791.85522"
     inkscape:cy="508.17755"
     inkscape:window-width="1920"
     inkscape:window-height="1019"
     inkscape:window-x="0"
     inkscape:window-y="0"
     inkscape:window-maximized="1"
     inkscape:current-layer="layer1" />
  <defs
     id="defs1" />
  <g
     inkscape:label="Camada 1"
     inkscape:groupmode="layer"
     id="layer1">
    <g
       id="g165"
       transform="matrix(3.7795276,0,0,3.7795276,-5551.1812,-2123.223)">
      <path
         id="rect101"
         style="stroke-width:0.264583"
         d="m 1468.75,561.76941 h 285.75 v 285.75 h -285.75 z" />
      <g
         id="g163"
         transform="matrix(0.50854462,0,0,0.50854462,-3137.4049,2927.5057)">
        <path
           id="path140"
           style="fill:#d70751;fill-opacity:1;stroke-width:1.40756"
           d="m 9376.0059,-4512.1849 c -3.1966,0.197 -7.6343,1.8608 -6.2648,0.3457 -5.2149,2.3277 -14.4778,5.5948 -19.6758,10.4691 l -0.1638,-1.0919 c -2.3814,2.8589 -10.3861,8.5377 -11.0236,12.2442 l -0.6372,0.1489 c -1.2373,2.0987 -2.0414,4.4762 -3.0241,6.6342 -1.6198,2.763 -2.3755,1.0639 -2.1446,1.4976 -3.1882,6.4634 -4.7745,11.8939 -6.1412,16.3504 0.974,1.4565 0.025,8.7712 0.3912,14.6255 -1.5059,27.232 17.8229,53.7167 40.0679,62.1223 l 0.3762,-4.7682 c -0.3518,-0.3565 -0.7314,-0.7203 -1.1597,-1.0919 l 1.032,1.8226 c -5.1093,-1.8088 -2.9717,-2.2381 -7.1293,-3.5538 l 1.1023,-1.4376 c -1.6569,-0.1273 -4.3876,-2.7896 -5.1335,-4.2685 l -1.8129,0.071 c -2.1761,-2.6823 -3.3377,-4.6206 -3.252,-6.1226 l -0.5854,1.0449 c -0.6627,-1.1392 -8.0098,-10.0755 -4.1982,-7.9954 -0.7082,-0.6442 -1.6494,-1.0512 -2.6702,-2.9079 l 0.7757,-0.8852 c -1.8313,-2.3605 -3.3755,-5.3852 -3.2572,-6.3929 0.9782,1.3205 1.6564,1.5679 2.3291,1.7948 -4.6321,-11.4913 -4.8926,-0.6327 -8.3985,-11.697 l 0.7406,-0.057 c -0.5673,-0.8603 -0.915,-1.7874 -1.371,-2.7012 l 0.3235,-3.2163 c -3.3331,-3.8511 -0.9318,-16.3908 -0.4491,-23.2668 0.331,-2.7952 2.7831,-5.772 4.6452,-10.4407 l -1.1343,-0.1918 c 2.1703,-3.7833 12.3889,-15.2003 17.124,-14.6147 2.2928,-2.8801 -0.4563,3e-4 -0.9053,-0.7343 5.0376,-5.2124 6.6211,-3.6825 10.0205,-4.6214 3.6638,-2.1743 -3.1463,0.8499 -1.4092,-0.8289 6.338,-1.6173 4.4905,-3.6795 12.7569,-4.5 0.8727,0.4949 -2.0229,0.7658 -2.7492,1.4092 5.2783,-2.5845 16.7059,-1.9945 24.1324,1.4325 8.6097,4.0273 18.2898,15.9253 18.6727,27.1193 l 0.4346,0.1173 c -0.2195,4.4507 0.6813,9.5982 -0.8826,14.3247 l 1.0573,-2.2397 v -0.01 c 0.126,3.4005 -0.9921,5.0529 -2.004,7.9753 l -1.82,0.9048 c -1.4876,2.891 0.1476,1.8354 -0.9178,4.1341 -2.3252,2.0646 -7.0463,6.4594 -8.5581,6.8622 -1.1048,0 0.7475,-1.3041 0.9896,-1.8036 -3.1093,2.1338 -2.4954,3.2034 -7.2513,4.5026 l -0.1385,-0.3085 c -0.2547,0.1199 -0.5116,0.2319 -0.7705,0.3364 l 0.3426,4.208 c 4.7446,-0.8581 9.32,-2.9043 13.5264,-6.2761 2.3675,-1.8439 4.9519,-4.9787 5.6993,-5.0209 -1.1246,1.6917 0.1929,0.8135 -0.6717,2.3069 2.3536,-3.8017 -1.0255,-1.5478 2.4355,-6.5645 l 1.2779,1.7596 c -0.4786,-3.1586 3.9198,-6.9896 3.4722,-11.9807 1.0091,-1.5258 1.1248,1.6436 0.054,5.1543 1.485,-3.8949 0.3927,-4.5216 0.7726,-7.7365 0.3965,1.0458 0.9194,2.1541 1.204,3.2587 -0.9022,-3.7046 1.022,-6.2481 1.5043,-8.4155 -0.4817,-0.213 -1.4937,1.6641 -1.7275,-2.7812 0.035,-1.9312 0.5397,-1.0119 0.7323,-1.4878 -0.377,-0.218 -1.3725,-1.6991 -1.9767,-4.5377 0.4352,-0.6687 1.1717,1.7295 1.7684,1.8267 -0.3843,-2.256 -1.0441,-3.9775 -1.0723,-5.7102 -1.7454,-3.6459 -0.6182,0.4839 -2.0314,-1.5653 -1.8579,-5.7905 1.5396,-1.3442 1.7704,-3.9734 2.8122,4.0746 4.4161,10.3946 5.1548,13.0111 -0.5629,-3.191 -1.4712,-6.2827 -2.5818,-9.2744 0.8574,0.3621 -1.3781,-6.5635 1.1136,-1.9776 -2.659,-9.7755 -11.37,-18.9105 -19.3859,-23.195 0.9781,0.8969 2.2156,2.0228 1.7736,2.2004 -3.9891,-2.3715 -3.2886,-2.5588 -3.8597,-3.561 -3.2445,-1.3221 -3.4613,0.1073 -5.6074,0 -6.1229,-3.2484 -7.3027,-2.9038 -12.9372,-4.9367 l 0.2563,1.2 c -4.0551,-1.3512 -4.7252,0.5106 -9.107,0 -0.2659,-0.2074 1.4053,-0.7548 2.7818,-0.953 -3.9215,0.516 -3.7388,-0.7745 -7.5758,0.1432 0.9446,-0.6629 1.9465,-1.1035 2.9544,-1.6671 z m 8.2057,34.0925 c -6.2226,0.1 -12.0459,4.055 -13.9883,8.3499 -3.1865,2.0057 -3.5582,7.7359 -4.946,8.7855 -1.3665,10.0348 1.1385,15.9051 6.1392,21.0622 l 0.4403,-5.582 c -1.8843,-3.1705 -2.9963,-6.8584 -2.9394,-10.8283 -0.1249,0.946 -0.3561,0.7096 -0.6149,1.0899 -0.6053,-7.6729 3.5442,-15.3791 10.5425,-18.5308 6.8446,-3.3865 14.869,-1.9984 19.7688,2.5745 -2.6912,-3.5271 -8.0525,-7.2673 -14.4022,-6.9209 z m -17.368,37.145 c 1.0274,1.8395 2.4963,3.5844 4.2489,5.164 l 0.054,-0.6867 c -1e-4,-1e-4 10e-5,-5e-4 0,-7e-4 -1.891,-1.9883 -3.6154,-4.3267 -4.3031,-4.4767 z m 3.5766,2.3172 c 0.2632,0.3847 0.5315,0.7668 0.8066,1.1436 l 0.019,-0.2393 c -0.2816,-0.2946 -0.5568,-0.596 -0.8252,-0.9043 z" />
        <path
           id="path152"
           style="fill:#f2f2f2;fill-opacity:1;stroke-width:0.284131"
           d="m 9378.8183,-4458.5325 -4.1929,10.5187 -5.5904,70.8843 5.8149,3.2016 z m 0.393,0.7442 -3.9224,83.6187 20.4169,11.5227 3.0735,0.1452 -7.1287,-87.6153 z m -49.063,59.6848 -1.2807,10.024 0.525,0.025 1.1164,-10.0503 z m 1.1914,0.2627 -1.1081,9.9678 65.6742,28.5745 -0.687,-2.6435 z m -1.6903,10.6546 44.4283,36.6869 14.3922,-1.1281 7.3019,-6.7991 -66.0984,-28.7588 z m 7.6737,7.4442 23.0542,21.9874 -29.1988,6.6152 35.0999,4.3749 3.4102,-4.7067 2.5879,0.5927 z m 58.8182,17.9553 0.7273,2.8018 h 0.6201 l 67.5008,3.5557 -0.2363,-4.9207 z m -39.1774,1.9562 -27.512,4.2832 -0.278,3.9868 29.4619,-6.6744 z m 39.7336,1.7077 -7.2384,6.7397 10.838,3.7888 60.1564,-7.2157 z m -8.102,7.3426 -14.2445,1.1164 -0.9034,23.521 12.7,-0.032 v 1.0298 l 4.441,0.056 0.018,-1.09 10.5118,0.084 -1.2774,-20.7553 z m -18.5468,0.2666 -3.1584,4.3592 -1.768,19.9817 7.4696,0.029 0.9068,-23.5795 z m 15.2451,25.1939 -11.8984,0.03 -0.1436,1.6945 28.1254,-0.2346 -0.1817,-1.4112 -9.7488,-0.077 -0.018,1.0948 -6.1355,-0.081 z m -20.216,0 -0.012,0.7062 7.3304,0.9668 0.1393,-1.6441 z" />
        <path
           id="rect152"
           style="fill:#f2f2f2;stroke-width:0.301226"
           d="m 9272.3008,-4319.8198 h 321.1065 v 89.9583 h -321.1065 z" />
        <path
           style="font-weight:800;font-size:84.9505px;line-height:70.7921px;font-family:Kanit;-inkscape-font-specification:'Kanit Ultra-Bold';text-align:justify;letter-spacing:0px;fill:#f2f2f2;fill-opacity:1;stroke-width:6.99718"
           d="m 9516.83,-4330.9425 v -81.1117 h 22.7968 l 26.7014,37.4071 v -37.4071 h 27.0792 v 81.1117 h -23.0488 l -26.4495,-37.2811 v 37.2811 z"
           id="path153" />
        <path
           id="path154"
           style="font-weight:800;font-size:84.9505px;line-height:70.7921px;font-family:Kanit;-inkscape-font-specification:'Kanit Ultra-Bold';text-align:justify;letter-spacing:0px;fill:#ffffff;fill-opacity:1;stroke-width:6.99718"
           d="m 9449.6985,-4412.0541 -18.2666,47.6261 36.0547,0.7534 0.5095,10.7012 -42.9317,5.149 -6.4751,16.8817 h 28.2128 l 6.1717,-16.1215 h 21.7888 l 6.2978,16.1215 h 28.2123 l -31.2353,-81.1114 z m 14.1067,26.4496 7.6827,19.6479 h -15.2399 z" />
        <path
           id="path157"
           style="font-weight:800;font-size:84.9505px;line-height:70.7921px;font-family:Kanit;-inkscape-font-specification:'Kanit Ultra-Bold';text-align:justify;letter-spacing:0px;fill:#f2f2f2;fill-opacity:1;stroke-width:6.99719"
           d="m 9267.4233,-4412.0541 v 81.1114 h 47.1057 c 8.7325,0 15.5334,-2.1407 20.4034,-6.4229 2.9947,-2.6333 5.0692,-5.9018 6.2224,-9.8051 v -5e-4 l -15.0281,-1.8722 0.6641,-9.4904 14.9117,-2.3218 c -0.4733,-2.18 -1.2604,-3.9643 -2.3616,-5.3527 -1.9311,-2.519 -4.5763,-4.492 -7.9349,-5.9195 1.8798,-1.2965 3.4593,-2.9437 4.7387,-4.9408 l -10.3203,-9.8423 1.8475,-14.457 h 4.2343 l 6.3175,3.5507 c -1.0917,-3.3015 -2.9025,-6.074 -5.4323,-8.3173 -4.4502,-3.9465 -10.7897,-5.9196 -19.0184,-5.9196 z m 25.6941,18.6408 h 12.9728 c 2.6869,0 4.6179,0.5877 5.7935,1.7632 1.2594,1.0916 1.8893,2.6871 1.8893,4.7862 0,4.3662 -2.435,6.549 -7.305,6.549 h -13.3506 z m 0,30.3537 h 13.6023 c 5.2899,0 7.9349,2.1832 7.9349,6.5494 0,4.7021 -2.5608,7.0533 -7.6828,7.0533 h -13.8544 z" />
        <path
           style="font-weight:800;font-size:84.9505px;line-height:70.7921px;font-family:Kanit;-inkscape-font-specification:'Kanit Ultra-Bold';text-align:justify;letter-spacing:0px;fill:#f2f2f2;fill-opacity:1;stroke-width:6.99719"
           d="m 9197.3955,-4330.9425 v -81.1116 h 63.1009 v 20.026 h -36.0218 v 10.328 h 31.3616 v 20.5297 h -31.3616 v 10.2019 h 36.0218 v 20.026 z"
           id="path158" />
        <path
           style="font-weight:800;font-size:84.9505px;line-height:70.7921px;font-family:Kanit;-inkscape-font-specification:'Kanit Ultra-Bold';text-align:justify;letter-spacing:0px;fill:#f2f2f2;fill-opacity:1;stroke-width:6.99719"
           d="m 9111.7496,-4330.9425 v -81.1116 h 37.407 q 12.721,0 21.7893,4.1564 9.0685,4.0303 13.9804,13.0986 4.9122,8.9425 4.9122,23.8046 0,21.0337 -10.7058,30.6059 -10.7058,9.4461 -29.9761,9.4461 z m 27.0791,-20.6557 h 7.0532 q 5.1639,0 8.8165,-1.5113 3.6526,-1.5115 5.5418,-5.6678 2.0152,-4.1564 2.0152,-12.2172 0,-8.0606 -1.7633,-12.2171 -1.7634,-4.1563 -5.4157,-5.6677 -3.6527,-1.6374 -9.1945,-1.6374 h -7.0532 z"
           id="path159" />
        <path
           id="rect159"
           style="fill:#d70751;stroke-width:0.212997"
           d="m 9111.75,-4319.8198 h 160.5508 v 89.9583 H 9111.75 Z" />
        <g
           id="g161"
           transform="translate(1328.2881,-64.127581)">
          <path
             d="m 7969.5141,-4203.4292 v -7.2839 h 8.0122 v 5.4629 h 4.0061 v -11.29 h -10.5616 v -6.9196 h 18.5739 v 20.0306 l -5.4629,5.4629 h -9.1048 z m 25.2258,0 v -14.5677 l 5.4629,-5.4629 h 11.29 l 5.4628,5.4629 v 14.5677 l -5.4628,5.4629 h -11.29 z m 8.3764,-13.111 v 11.6542 h 5.4629 v -11.6542 z m 17.942,18.5739 4.9166,-25.4935 h 13.8393 l 4.9166,25.4935 h -8.5585 l -0.6556,-4.7345 h -5.2444 l -0.6555,4.7345 z m 10.0153,-10.1974 h 3.6419 l -1.2747,-9.1048 h -1.0926 z m -5.0987,-15.6603 -0.7284,-4.1882 3.6419,-2.1852 7.4295,1.4568 3.4963,-1.6389 0.7284,4.1882 -3.6419,2.1852 -7.4296,-1.4568 z m 22.8585,20.3948 v -14.5677 l 5.4629,-5.4629 h 11.29 l 5.4629,5.4629 v 14.5677 l -5.4629,5.4629 h -11.29 z m 8.3764,-13.111 v 11.6542 h 5.4629 v -11.6542 z m 39.3438,6.9197 h 4.7345 v -7.648 h -4.7345 z m 12.7467,-8.3764 v 9.1048 l -5.4629,5.4629 h -7.2838 v 5.4629 h -8.0123 v -25.4935 h 15.2961 z m 4.831,20.0306 v -25.4935 h 18.2096 v 6.5555 h -10.1974 v 2.9135 h 8.3765 v 6.1913 h -8.3765 v 3.2777 h 10.5616 v 6.5555 z m 23.9511,0 v -6.9197 h 12.3826 v -2.5493 l -12.7468,-1.2019 v -9.7239 l 5.0987,-5.0987 h 15.2961 v 6.9196 h -12.3826 v 2.1852 l 12.7468,1.2018 v 10.0882 l -5.0987,5.0987 z m 25.9542,0 v -6.9197 h 12.3825 v -2.5493 l -12.7467,-1.2019 v -9.7239 l 5.0987,-5.0987 h 15.2961 v 6.9196 h -12.3826 v 2.1852 l 12.7468,1.2018 v 10.0882 l -5.0987,5.0987 z m 25.5899,-5.4629 v -14.5677 l 5.4629,-5.4629 h 11.29 l 5.4629,5.4629 v 14.5677 l -5.4629,5.4629 h -11.29 z m 8.3765,-13.111 v 11.6542 h 5.4628 v -11.6542 z m 17.9419,18.5739 4.9166,-25.4935 h 13.8393 l 4.9166,25.4935 h -8.5585 l -0.6555,-4.7345 h -5.2444 l -0.6556,4.7345 z m 10.0153,-10.1974 h 3.6419 l -1.2746,-9.1048 h -1.0926 z"
             id="text159"
             style="font-weight:900;font-size:36.4193px;line-height:30.3495px;font-family:Tektur;-inkscape-font-specification:'Tektur Heavy';text-align:justify;letter-spacing:2.64583px;stroke-width:1.86639"
             aria-label="JOÃO PESSOA" />
        </g>
        <path
           id="circle161"
           style="fill:#f2f2f2;stroke-width:0.356133"
           d="m 9104.1931,-4341.2705 a 10.327878,10.327878 0 0 1 -10.3279,10.3279 10.327878,10.327878 0 0 1 -10.3278,-10.3279 10.327878,10.327878 0 0 1 10.3278,-10.3279 10.327878,10.327878 0 0 1 10.3279,10.3279 z" />
        <path
           d="m 9148.4119,-4264.3422 h 7.874 v -20.9973 h -7.874 z m -14.4357,12.4672 v -45.9317 h 26.9029 l 9.8425,9.8425 v 26.2467 l -9.8425,9.8425 z m 36.7242,0 8.8583,-45.9317 h 24.9343 l 8.8583,45.9317 h -15.4199 l -1.1811,-8.5302 h -9.4488 l -1.1811,8.5302 z m 18.0446,-18.3727 h 6.5617 l -2.2966,-16.4042 h -1.9685 z m 33.4434,18.3727 v -13.7795 h -5.4462 l -8.0052,-32.1522 h 15.4199 l 3.609,19.685 h 3.2808 l 3.6089,-19.685 h 15.4199 l -8.0052,32.1522 h -5.4462 v 13.7795 z"
           id="text163"
           style="font-weight:900;font-size:65.6167px;line-height:54.6805px;font-family:Tektur;-inkscape-font-specification:'Tektur Heavy';text-align:justify;letter-spacing:-2.64583px;fill:#ffffff;stroke-width:0.605541"
           aria-label="DAY" />
      </g>
    </g>
  </g>
</svg>
